<svg xmlns="http://www.w3.org/2000/svg" xmlns:xlink="http://www.w3.org/1999/xlink" viewBox="0 0 2121.31 855.97"><defs><style>.cls-1,.cls-10{fill:#f33;}.cls-2{fill:#010101;}.cls-3{fill:#020202;}.cls-4{fill:#030303;}.cls-5{fill:#060606;}.cls-6{fill:#050505;}.cls-7{fill:#040404;}.cls-10,.cls-8{font-size:36px;font-family:MyriadPro-Regular, Myriad Pro;}.cls-9{fill:#93f;}</style><symbol id="UpClubs" data-name="UpClubs" viewBox="0 0 31.79 29.41"><path class="cls-3" d="M8,0H23.84A7.94,7.94,0,0,0,15.9,8,8,8,0,0,0,8,0ZM23.84,3.18a7.94,7.94,0,0,0-7.94,8A8,8,0,1,0,8,19.07h.37a7.95,7.95,0,1,0,15.15,0h.37a7.95,7.95,0,1,0,0-15.89Z"/></symbol><symbol id="LClubs" data-name="LClubs" viewBox="0 0 31.79 29.41"><path class="cls-2" d="M31.79,18.28a7.95,7.95,0,1,1-15.89,0,8,8,0,1,1-7.95-8l.37,0a7.95,7.95,0,1,1,15.15,0l.37,0A8,8,0,0,1,31.79,18.28ZM15.9,21.46a8,8,0,0,1-7.95,8H23.84A7.94,7.94,0,0,1,15.9,21.46Z"/></symbol><symbol id="sUpClubs" data-name="sUpClubs" viewBox="0 0 15.29 14.14"><path class="cls-6" d="M15.29,5.35a3.82,3.82,0,0,1-3.82,3.82l-.2,0a3.78,3.78,0,0,1,.2,1.17,3.83,3.83,0,0,1-7.65,0A3.78,3.78,0,0,1,4,9.15l-.2,0A3.82,3.82,0,1,1,7.64,5.35a3.83,3.83,0,0,1,7.65,0ZM7.64,3.82A3.83,3.83,0,0,1,11.47,0H3.82A3.82,3.82,0,0,1,7.64,3.82Z"/></symbol><symbol id="sClubs" data-name="sClubs" viewBox="0 0 15 14"><use width="15.29" height="14.14" transform="matrix(0.98, 0, 0, -0.99, 0, 14)" xlink:href="#sUpClubs"/></symbol><symbol id="UpSpades" data-name="UpSpades" viewBox="0 0 30.95 29.41"><path id="Spades-2" data-name="Spades" class="cls-4" d="M15.48,29.41C0,19.35,0,14.7,0,10.06a7.74,7.74,0,0,1,15.48,0,7.74,7.74,0,1,1,15.47,0C31,14.7,30.18,19.35,15.48,29.41ZM23.22,0H7.74a7.74,7.74,0,0,1,7.74,7.74A7.73,7.73,0,0,1,23.22,0Z"/></symbol><symbol id="LSpades" data-name="LSpades" viewBox="0 0 30.95 29.41"><path d="M31,19.35a7.74,7.74,0,0,1-15.47,0A7.74,7.74,0,0,1,0,19.35C0,14.7,0,10.06,15.48,0,30.18,10.06,31,14.7,31,19.35ZM15.48,21.67a7.75,7.75,0,0,1-7.74,7.74H23.22A7.74,7.74,0,0,1,15.48,21.67Z"/></symbol><symbol id="spades-3" data-name="spades" viewBox="0 0 14.89 13.03"><path class="cls-5" d="M14.89,9.3a3.73,3.73,0,1,1-7.45,0A3.72,3.72,0,1,1,0,9.3C0,7.07,0,4.84,7.44,0,14.52,4.84,14.89,7.07,14.89,9.3Z"/></symbol><symbol id="sSpades" data-name="sSpades" viewBox="0 0 14.89 14.14"><use width="14.89" height="13.03" xlink:href="#spades-3"/><path id="Spades-5" data-name="Spades" class="cls-5" d="M7.44,10.42a3.71,3.71,0,0,1-3.72,3.72h7.45A3.72,3.72,0,0,1,7.44,10.42Z"/></symbol><symbol id="sUpSpades" data-name="sUpSpades" viewBox="0 0 14.89 14.14"><path id="Spades-6" data-name="Spades" class="cls-7" d="M7.44,14.14C0,9.3,0,7.07,0,4.84a3.72,3.72,0,0,1,7.44,0,3.73,3.73,0,0,1,7.45,0C14.89,7.07,14.52,9.3,7.44,14.14ZM11.17,0H3.72A3.72,3.72,0,0,1,7.44,3.72,3.73,3.73,0,0,1,11.17,0Z"/></symbol><symbol id="UpHeart" data-name="UpHeart" viewBox="0 0 30.95 30.95"><path id="Hearts-2" data-name="Hearts" class="cls-1" d="M15.48,0C0,15.48,0,18.57,0,23.22a7.74,7.74,0,0,0,15.48,0,7.74,7.74,0,0,0,15.47,0C31,18.57,31,15.48,15.48,0Z"/></symbol><symbol id="LHearts" data-name="LHearts" viewBox="0 0 30.95 30.95"><path id="Hearts-3" data-name="Hearts" class="cls-1" d="M15.48,31C0,15.48,0,12.38,0,7.74a7.74,7.74,0,0,1,15.48,0A7.74,7.74,0,1,1,31,7.74C31,12.38,31,15.48,15.48,31Z"/></symbol><symbol id="sHearts" data-name="sHearts" viewBox="0 0 14.89 14.89"><path id="Hearts-4" data-name="Hearts" class="cls-1" d="M7.44,14.89C0,7.44,0,6,0,3.72a3.72,3.72,0,0,1,7.44,0,3.73,3.73,0,0,1,7.45,0C14.89,6,14.89,7.44,7.44,14.89Z"/></symbol><symbol id="sUpHearts" data-name="sUpHearts" viewBox="0 0 14.89 14.89"><path id="Hearts-5" data-name="Hearts" class="cls-1" d="M7.44,0C0,7.44,0,8.93,0,11.17a3.72,3.72,0,0,0,7.44,0,3.73,3.73,0,0,0,7.45,0C14.89,8.93,14.89,7.44,7.44,0Z"/></symbol><symbol id="Diamond" data-name="Diamond" viewBox="0 0 30.95 30.95"><polygon class="cls-1" points="15.48 0 0 15.48 15.48 30.95 30.95 15.48 15.48 0"/></symbol><symbol id="sDiamond" data-name="sDiamond" viewBox="0 0 14.89 14.89"><polygon class="cls-1" points="7.44 0 0 7.44 7.44 14.89 14.89 7.44 7.44 0"/></symbol></defs><title>lov</title><g id="Layer_2" data-name="Layer 2"><g id="Layer_1-2" data-name="Layer 1"><g id="Clubs"><g id="_2C" data-name="2C"><use width="31.79" height="29.41" transform="translate(52.31 349.34) scale(1.01 0.99)" xlink:href="#UpClubs"/><use width="31.79" height="29.41" transform="translate(52.31 261.34) scale(1.01 1.02)" xlink:href="#LClubs"/><text class="cls-8" transform="translate(0.06 245.27)">2</text><use width="15" height="14" transform="translate(1.31 247.34)" xlink:href="#sClubs"/><use width="15.29" height="14.14" transform="translate(119.31 378.34) scale(0.98 0.99)" xlink:href="#sUpClubs"/><text class="cls-8" transform="translate(136.06 394.42) rotate(180)">2</text></g><g id="_3C" data-name="3C"><text class="cls-8" transform="translate(152.06 245.27)">3</text><use width="15" height="14" transform="translate(153.31 247.34)" xlink:href="#sClubs"/><use width="15.29" height="14.14" transform="translate(271.31 378.34) scale(0.98 0.99)" xlink:href="#sUpClubs"/><text class="cls-8" transform="translate(288.06 394.42) rotate(180)">3</text><use width="31.79" height="29.41" transform="translate(204.31 349.34) scale(1.01 0.99)" xlink:href="#UpClubs"/><use width="31.79" height="29.41" transform="translate(204.31 261.34) scale(1.01 1.02)" xlink:href="#LClubs"/><use width="31.79" height="29.41" transform="translate(204.31 303.34) scale(1.01 1.02)" xlink:href="#LClubs"/></g><g id="_4C" data-name="4C"><text class="cls-8" transform="translate(304.06 245.27)">4</text><use width="15" height="14" transform="translate(305.31 247.34)" xlink:href="#sClubs"/><use width="31.79" height="29.41" transform="translate(327.31 349.34) scale(1.01 0.99)" xlink:href="#UpClubs"/><use width="31.79" height="29.41" transform="translate(327.31 261.34) scale(1.01 1.02)" xlink:href="#LClubs"/><use width="31.79" height="29.41" transform="translate(385.31 349.34) scale(1.01 0.99)" xlink:href="#UpClubs"/><use width="31.79" height="29.41" transform="translate(385.31 261.34) scale(1.01 1.02)" xlink:href="#LClubs"/><use width="15.29" height="14.14" transform="translate(424.31 378.34) scale(0.98 0.99)" xlink:href="#sUpClubs"/><text class="cls-8" transform="translate(439.06 394.42) rotate(180)">4</text></g><rect id="Background" class="cls-9" x="1969.31" y="212.34" width="152" height="219"/><g id="_8C" data-name="8C"><text class="cls-8" transform="translate(912.06 246.27)">8</text><use width="15" height="14" transform="translate(913.31 248.34)" xlink:href="#sClubs"/><use width="15.29" height="14.14" transform="translate(1031.31 379.34) scale(0.98 0.99)" xlink:href="#sUpClubs"/><text class="cls-8" transform="translate(1048.06 395.42) rotate(180)">8</text><use width="31.79" height="29.41" transform="translate(934.31 349.34) scale(1.01 0.99)" xlink:href="#UpClubs"/><use width="31.79" height="29.41" transform="translate(934.31 261.34) scale(1.01 1.02)" xlink:href="#LClubs"/><use width="31.79" height="29.41" transform="translate(934.31 303.34) scale(1.01 1.02)" xlink:href="#LClubs"/><use width="31.79" height="29.41" transform="translate(994.31 349.34) scale(1.01 0.99)" xlink:href="#UpClubs"/><use width="31.79" height="29.41" transform="translate(994.31 261.34) scale(1.01 1.02)" xlink:href="#LClubs"/><use width="31.79" height="29.41" transform="translate(994.31 303.34) scale(1.01 1.02)" xlink:href="#LClubs"/><use width="15.29" height="14.14" transform="translate(972.73 340.57) scale(1.01 0.99)" xlink:href="#sUpClubs"/><use width="15" height="14" transform="translate(972.88 295.91) scale(1.01 1.02)" xlink:href="#sClubs"/></g><g id="_6C" data-name="6C"><text class="cls-8" transform="translate(608.06 246.27)">6</text><use width="15" height="14" transform="translate(609.31 248.34)" xlink:href="#sClubs"/><use width="15.29" height="14.14" transform="translate(727.31 379.34) scale(0.98 0.99)" xlink:href="#sUpClubs"/><text class="cls-8" transform="translate(744.06 395.42) rotate(180)">6</text><use width="31.79" height="29.41" transform="translate(630.31 349.34) scale(1.01 0.99)" xlink:href="#UpClubs"/><use width="31.79" height="29.41" transform="translate(630.31 261.34) scale(1.01 1.02)" xlink:href="#LClubs"/><use width="31.79" height="29.41" transform="translate(630.31 303.34) scale(1.01 1.02)" xlink:href="#LClubs"/><use width="31.79" height="29.41" transform="translate(690.31 349.34) scale(1.01 0.99)" xlink:href="#UpClubs"/><use width="31.79" height="29.41" transform="translate(690.31 261.34) scale(1.01 1.02)" xlink:href="#LClubs"/><use width="31.79" height="29.41" transform="translate(690.31 303.34) scale(1.01 1.02)" xlink:href="#LClubs"/></g><g id="_9C" data-name="9C"><text class="cls-8" transform="translate(1064.06 246.27)">9</text><use width="15" height="14" transform="translate(1065.31 248.34)" xlink:href="#sClubs"/><use width="15.29" height="14.14" transform="translate(1183.31 379.34) scale(0.98 0.99)" xlink:href="#sUpClubs"/><text class="cls-8" transform="translate(1200.06 395.42) rotate(180)">9</text><use width="31.79" height="29.41" transform="translate(1086.31 349.34) scale(1.01 0.99)" xlink:href="#UpClubs"/><use width="31.79" height="29.41" transform="translate(1086.31 261.34) scale(1.01 1.02)" xlink:href="#LClubs"/><use width="31.79" height="29.41" transform="translate(1086.31 322.34) scale(1.01 0.99)" xlink:href="#UpClubs"/><use width="31.79" height="29.41" transform="translate(1086.31 290.34) scale(1.01 1.02)" xlink:href="#LClubs"/><use width="31.79" height="29.41" transform="translate(1146.31 349.34) scale(1.01 0.99)" xlink:href="#UpClubs"/><use width="31.79" height="29.41" transform="translate(1146.31 261.34) scale(1.01 1.02)" xlink:href="#LClubs"/><use width="31.79" height="29.41" transform="translate(1146.31 290.34) scale(1.01 1.02)" xlink:href="#LClubs"/><use width="31.79" height="29.41" transform="translate(1146.31 322.34) scale(1.01 0.99)" xlink:href="#UpClubs"/><use width="15" height="14" transform="translate(1124.76 314.2) scale(1.01 1.02)" xlink:href="#sClubs"/></g><g id="_10C" data-name="10C"><text class="cls-8" transform="translate(1216.16 245.71)">10</text><use width="15" height="14" transform="translate(1217.4 247.78)" xlink:href="#sClubs"/><use width="15.29" height="14.14" transform="translate(1335.4 378.78) scale(0.98 0.99)" xlink:href="#sUpClubs"/><text class="cls-8" transform="translate(1352.16 394.85) rotate(180)">10</text><use width="31.79" height="29.41" transform="translate(1238.4 348.78) scale(1.01 0.99)" xlink:href="#UpClubs"/><use width="31.79" height="29.41" transform="translate(1238.4 260.78) scale(1.01 1.02)" xlink:href="#LClubs"/><use width="31.79" height="29.41" transform="translate(1238.4 321.78) scale(1.01 0.99)" xlink:href="#UpClubs"/><use width="31.79" height="29.41" transform="translate(1238.4 289.78) scale(1.01 1.02)" xlink:href="#LClubs"/><use width="31.79" height="29.41" transform="translate(1298.4 348.78) scale(1.01 0.99)" xlink:href="#UpClubs"/><use width="31.79" height="29.41" transform="translate(1298.4 260.78) scale(1.01 1.02)" xlink:href="#LClubs"/><use width="31.79" height="29.41" transform="translate(1298.4 289.78) scale(1.01 1.02)" xlink:href="#LClubs"/><use width="31.79" height="29.41" transform="translate(1298.4 321.78) scale(1.01 0.99)" xlink:href="#UpClubs"/><use width="15.29" height="14.14" transform="translate(1276.71 340.31) scale(1.01 0.99)" xlink:href="#sUpClubs"/><use width="15" height="14" transform="translate(1276.85 295.64) scale(1.01 1.02)" xlink:href="#sClubs"/></g><g id="_7C" data-name="7C"><text class="cls-8" transform="translate(760.15 246.19)">7</text><use width="15" height="14" transform="translate(761.39 248.26)" xlink:href="#sClubs"/><use width="15.29" height="14.14" transform="translate(879.39 379.26) scale(0.98 0.99)" xlink:href="#sUpClubs"/><text class="cls-8" transform="translate(896.15 395.33) rotate(180)">7</text><use width="31.79" height="29.41" transform="translate(782.39 349.26) scale(1.01 0.99)" xlink:href="#UpClubs"/><use width="31.79" height="29.41" transform="translate(782.39 261.26) scale(1.01 1.02)" xlink:href="#LClubs"/><use width="31.79" height="29.41" transform="translate(782.39 303.26) scale(1.01 1.02)" xlink:href="#LClubs"/><use width="31.79" height="29.41" transform="translate(842.39 349.26) scale(1.01 0.99)" xlink:href="#UpClubs"/><use width="31.79" height="29.41" transform="translate(842.39 261.26) scale(1.01 1.02)" xlink:href="#LClubs"/><use width="31.79" height="29.41" transform="translate(842.39 303.26) scale(1.01 1.02)" xlink:href="#LClubs"/><use width="15" height="14" transform="translate(820.96 295.82) scale(1.01 1.02)" xlink:href="#sClubs"/></g><g id="_5C" data-name="5C"><text class="cls-8" transform="translate(456.06 245.27)">5</text><use width="15" height="14" transform="translate(457.31 247.34)" xlink:href="#sClubs"/><use width="31.79" height="29.41" transform="translate(479.31 349.34) scale(1.01 0.99)" xlink:href="#UpClubs"/><use width="31.79" height="29.41" transform="translate(479.31 261.34) scale(1.01 1.02)" xlink:href="#LClubs"/><use width="15" height="14" transform="translate(515.7 311.45) scale(1.01 1.02)" xlink:href="#sClubs"/><use width="31.79" height="29.41" transform="translate(537.31 349.34) scale(1.01 0.99)" xlink:href="#UpClubs"/><use width="31.79" height="29.41" transform="translate(537.31 261.34) scale(1.01 1.02)" xlink:href="#LClubs"/><use width="15.29" height="14.14" transform="translate(576.31 378.34) scale(0.98 0.99)" xlink:href="#sUpClubs"/><text class="cls-8" transform="translate(591.06 394.42) rotate(180)">5</text></g><g id="JC"><text class="cls-8" transform="translate(1368.44 245.27)">J</text><use width="15" height="14" transform="translate(1369.69 247.35)" xlink:href="#sClubs"/><use width="15.29" height="14.14" transform="translate(1487.69 378.35) scale(0.98 0.99)" xlink:href="#sUpClubs"/><text class="cls-8" transform="translate(1504.44 394.42) rotate(180)">J</text><use width="31.79" height="29.41" transform="translate(1389.08 276.62) scale(2.94 2.94)" xlink:href="#LClubs"/></g><g id="QC"><text class="cls-8" transform="translate(1520.44 245.27)">Q</text><use width="15" height="14" transform="translate(1521.69 247.35)" xlink:href="#sClubs"/><use width="15.29" height="14.14" transform="translate(1639.69 378.35) scale(0.98 0.99)" xlink:href="#sUpClubs"/><text class="cls-8" transform="translate(1656.44 394.42) rotate(180)">Q</text><use width="31.79" height="29.41" transform="translate(1541.08 276.62) scale(2.94 2.94)" xlink:href="#LClubs"/></g><g id="KC"><text class="cls-8" transform="translate(1672.06 246.27)">K</text><use width="15" height="14" transform="translate(1673.31 248.34)" xlink:href="#sClubs"/><use width="15.29" height="14.14" transform="translate(1791.31 379.34) scale(0.98 0.99)" xlink:href="#sUpClubs"/><text class="cls-8" transform="translate(1808.06 395.42) rotate(180)">K</text><use width="31.79" height="29.41" transform="translate(1693.08 276.62) scale(2.94 2.94)" xlink:href="#LClubs"/></g><g id="AC"><text class="cls-8" transform="translate(1824.28 245.25)">A</text><use width="15" height="14" transform="translate(1825.52 247.33)" xlink:href="#sClubs"/><use width="15.29" height="14.14" transform="translate(1943.52 378.33) scale(0.98 0.99)" xlink:href="#sUpClubs"/><text class="cls-8" transform="translate(1960.28 394.4) rotate(180)">A</text><use width="15" height="14" transform="translate(1884.97 313.18) scale(1.01 1.02)" xlink:href="#sClubs"/></g></g><g id="Spades"><g id="_2C-2" data-name="2C"><use width="30.95" height="29.41" transform="translate(53.08 134.22) scale(1.01 0.99)" xlink:href="#UpSpades"/><use width="30.95" height="29.41" transform="translate(53.08 46.22) scale(1.01 1.02)" xlink:href="#LSpades"/><text class="cls-8" transform="translate(0.42 30.15)">2</text><use width="14.89" height="14.14" transform="translate(1.72 32.15)" xlink:href="#sSpades"/><use width="14.89" height="14.14" transform="translate(119.86 163.22) scale(0.98 0.99)" xlink:href="#sUpSpades"/><text class="cls-8" transform="translate(136.42 179.3) rotate(180)">2</text></g><g id="_3C-2" data-name="3C"><text class="cls-8" transform="translate(152.42 30.15)">3</text><use width="14.89" height="14.14" transform="translate(153.72 32.15)" xlink:href="#sSpades"/><use width="14.89" height="14.14" transform="translate(271.86 163.22) scale(0.98 0.99)" xlink:href="#sUpSpades"/><text class="cls-8" transform="translate(288.42 179.3) rotate(180)">3</text><use width="30.95" height="29.41" transform="translate(205.08 134.22) scale(1.01 0.99)" xlink:href="#UpSpades"/><use width="30.95" height="29.41" transform="translate(205.08 46.22) scale(1.01 1.02)" xlink:href="#LSpades"/><use width="30.95" height="29.41" transform="translate(205.08 88.22) scale(1.01 1.02)" xlink:href="#LSpades"/></g><g id="_4C-2" data-name="4C"><text class="cls-8" transform="translate(304.42 30.15)">4</text><use width="14.89" height="14.14" transform="translate(305.72 32.15)" xlink:href="#sSpades"/><use width="30.95" height="29.41" transform="translate(328.08 134.22) scale(1.01 0.99)" xlink:href="#UpSpades"/><use width="30.95" height="29.41" transform="translate(328.08 46.22) scale(1.01 1.02)" xlink:href="#LSpades"/><use width="30.95" height="29.41" transform="translate(386.08 134.22) scale(1.01 0.99)" xlink:href="#UpSpades"/><use width="30.95" height="29.41" transform="translate(386.08 46.22) scale(1.01 1.02)" xlink:href="#LSpades"/><use width="14.89" height="14.14" transform="translate(424.86 163.22) scale(0.98 0.99)" xlink:href="#sUpSpades"/><text class="cls-8" transform="translate(439.42 179.3) rotate(180)">4</text></g><g id="_8C-2" data-name="8C"><text class="cls-8" transform="translate(912.42 31.15)">8</text><use width="14.89" height="14.14" transform="translate(913.72 33.15)" xlink:href="#sSpades"/><use width="14.89" height="14.14" transform="translate(1031.86 164.22) scale(0.98 0.99)" xlink:href="#sUpSpades"/><text class="cls-8" transform="translate(1048.42 180.3) rotate(180)">8</text><use width="30.95" height="29.41" transform="translate(935.08 134.22) scale(1.01 0.99)" xlink:href="#UpSpades"/><use width="30.95" height="29.41" transform="translate(935.08 46.22) scale(1.01 1.02)" xlink:href="#LSpades"/><use width="30.95" height="29.41" transform="translate(935.08 88.22) scale(1.01 1.02)" xlink:href="#LSpades"/><use width="30.95" height="29.41" transform="translate(995.08 134.22) scale(1.01 0.99)" xlink:href="#UpSpades"/><use width="30.95" height="29.41" transform="translate(995.08 46.22) scale(1.01 1.02)" xlink:href="#LSpades"/><use width="30.95" height="29.41" transform="translate(995.08 88.22) scale(1.01 1.02)" xlink:href="#LSpades"/><use width="14.89" height="14.14" transform="translate(973.29 125.46) scale(1.01 0.99)" xlink:href="#sUpSpades"/><use width="14.89" height="14.14" transform="translate(973.29 80.71) scale(1.01 1.02)" xlink:href="#sSpades"/></g><g id="_6C-2" data-name="6C"><text class="cls-8" transform="translate(608.42 31.15)">6</text><use width="14.89" height="14.14" transform="translate(609.72 33.15)" xlink:href="#sSpades"/><use width="14.89" height="14.14" transform="translate(727.86 164.22) scale(0.98 0.99)" xlink:href="#sUpSpades"/><text class="cls-8" transform="translate(744.42 180.3) rotate(180)">6</text><use width="30.95" height="29.41" transform="translate(631.08 134.22) scale(1.01 0.99)" xlink:href="#UpSpades"/><use width="30.95" height="29.41" transform="translate(631.08 46.22) scale(1.01 1.02)" xlink:href="#LSpades"/><use width="30.95" height="29.41" transform="translate(631.08 88.22) scale(1.01 1.02)" xlink:href="#LSpades"/><use width="30.95" height="29.41" transform="translate(691.08 134.22) scale(1.01 0.99)" xlink:href="#UpSpades"/><use width="30.95" height="29.41" transform="translate(691.08 46.22) scale(1.01 1.02)" xlink:href="#LSpades"/><use width="30.95" height="29.41" transform="translate(691.08 88.22) scale(1.01 1.02)" xlink:href="#LSpades"/></g><g id="_9C-2" data-name="9C"><text class="cls-8" transform="translate(1064.42 31.15)">9</text><use width="14.89" height="14.14" transform="translate(1065.72 33.15)" xlink:href="#sSpades"/><use width="14.89" height="14.14" transform="translate(1183.86 164.22) scale(0.98 0.99)" xlink:href="#sUpSpades"/><text class="cls-8" transform="translate(1200.42 180.3) rotate(180)">9</text><use width="30.95" height="29.41" transform="translate(1087.08 134.22) scale(1.01 0.99)" xlink:href="#UpSpades"/><use width="30.95" height="29.41" transform="translate(1087.08 46.22) scale(1.01 1.02)" xlink:href="#LSpades"/><use width="30.95" height="29.41" transform="translate(1087.08 107.22) scale(1.01 0.99)" xlink:href="#UpSpades"/><use width="30.95" height="29.41" transform="translate(1087.08 75.22) scale(1.01 1.02)" xlink:href="#LSpades"/><use width="30.95" height="29.41" transform="translate(1147.08 134.22) scale(1.01 0.99)" xlink:href="#UpSpades"/><use width="30.95" height="29.41" transform="translate(1147.08 46.22) scale(1.01 1.02)" xlink:href="#LSpades"/><use width="30.95" height="29.41" transform="translate(1147.08 75.22) scale(1.01 1.02)" xlink:href="#LSpades"/><use width="30.95" height="29.41" transform="translate(1147.08 107.22) scale(1.01 0.99)" xlink:href="#UpSpades"/><use width="14.89" height="14.14" transform="translate(1125.17 99.01) scale(1.01 1.02)" xlink:href="#sSpades"/></g><g id="_10C-2" data-name="10C"><text class="cls-8" transform="translate(1216.52 30.59)">10</text><use width="14.89" height="14.14" transform="translate(1217.82 32.59)" xlink:href="#sSpades"/><use width="14.89" height="14.14" transform="translate(1335.96 163.66) scale(0.98 0.99)" xlink:href="#sUpSpades"/><text class="cls-8" transform="translate(1352.51 179.73) rotate(180)">10</text><use width="30.95" height="29.41" transform="translate(1239.18 133.66) scale(1.01 0.99)" xlink:href="#UpSpades"/><use width="30.95" height="29.41" transform="translate(1239.18 45.66) scale(1.01 1.02)" xlink:href="#LSpades"/><use width="30.95" height="29.41" transform="translate(1239.18 106.66) scale(1.01 0.99)" xlink:href="#UpSpades"/><use width="30.95" height="29.41" transform="translate(1239.18 74.66) scale(1.01 1.02)" xlink:href="#LSpades"/><use width="30.95" height="29.41" transform="translate(1299.18 133.66) scale(1.01 0.99)" xlink:href="#UpSpades"/><use width="30.95" height="29.41" transform="translate(1299.18 45.66) scale(1.01 1.02)" xlink:href="#LSpades"/><use width="30.95" height="29.41" transform="translate(1299.18 74.66) scale(1.01 1.02)" xlink:href="#LSpades"/><use width="30.95" height="29.41" transform="translate(1299.18 106.66) scale(1.01 0.99)" xlink:href="#UpSpades"/><use width="14.89" height="14.14" transform="translate(1277.27 125.19) scale(1.01 0.99)" xlink:href="#sUpSpades"/><use width="14.89" height="14.14" transform="translate(1277.27 80.45) scale(1.01 1.02)" xlink:href="#sSpades"/></g><g id="_7C-2" data-name="7C"><text class="cls-8" transform="translate(760.5 31.07)">7</text><use width="14.89" height="14.14" transform="translate(761.8 33.07)" xlink:href="#sSpades"/><use width="14.89" height="14.14" transform="translate(879.94 164.14) scale(0.98 0.99)" xlink:href="#sUpSpades"/><text class="cls-8" transform="translate(896.5 180.21) rotate(180)">7</text><use width="30.95" height="29.41" transform="translate(783.17 134.14) scale(1.01 0.99)" xlink:href="#UpSpades"/><use width="30.95" height="29.41" transform="translate(783.17 46.14) scale(1.01 1.02)" xlink:href="#LSpades"/><use width="30.95" height="29.41" transform="translate(783.17 88.14) scale(1.01 1.02)" xlink:href="#LSpades"/><use width="30.95" height="29.41" transform="translate(843.17 134.14) scale(1.01 0.99)" xlink:href="#UpSpades"/><use width="30.95" height="29.41" transform="translate(843.17 46.14) scale(1.01 1.02)" xlink:href="#LSpades"/><use width="30.95" height="29.41" transform="translate(843.17 88.14) scale(1.01 1.02)" xlink:href="#LSpades"/><use width="14.89" height="14.14" transform="translate(821.37 80.63) scale(1.01 1.02)" xlink:href="#sSpades"/></g><g id="_5C-2" data-name="5C"><text class="cls-8" transform="translate(456.42 30.15)">5</text><use width="14.89" height="14.14" transform="translate(457.72 32.15)" xlink:href="#sSpades"/><use width="30.95" height="29.41" transform="translate(480.08 134.22) scale(1.01 0.99)" xlink:href="#UpSpades"/><use width="30.95" height="29.41" transform="translate(480.08 46.22) scale(1.01 1.02)" xlink:href="#LSpades"/><use width="14.89" height="14.14" transform="translate(516.11 96.25) scale(1.01 1.02)" xlink:href="#sSpades"/><use width="30.95" height="29.41" transform="translate(538.08 134.22) scale(1.01 0.99)" xlink:href="#UpSpades"/><use width="30.95" height="29.41" transform="translate(538.08 46.22) scale(1.01 1.02)" xlink:href="#LSpades"/><use width="14.89" height="14.14" transform="translate(576.86 163.22) scale(0.98 0.99)" xlink:href="#sUpSpades"/><text class="cls-8" transform="translate(591.42 179.3) rotate(180)">5</text></g><g id="JC-2" data-name="JC"><text class="cls-8" transform="translate(1368.8 30.15)">J</text><use width="14.89" height="14.14" transform="translate(1370.1 32.16)" xlink:href="#sSpades"/><use width="14.89" height="14.14" transform="translate(1488.24 163.23) scale(0.98 0.99)" xlink:href="#sUpSpades"/><text class="cls-8" transform="translate(1504.8 179.3) rotate(180)">J</text><use width="30.95" height="29.41" transform="translate(1390.31 63.62) scale(2.94 2.94)" xlink:href="#LSpades"/></g><g id="QC-2" data-name="QC"><text class="cls-8" transform="translate(1520.8 30.15)">Q</text><use width="14.89" height="14.14" transform="translate(1522.1 32.16)" xlink:href="#sSpades"/><use width="14.89" height="14.14" transform="translate(1640.24 163.23) scale(0.98 0.99)" xlink:href="#sUpSpades"/><text class="cls-8" transform="translate(1656.8 179.3) rotate(180)">Q</text><use width="30.95" height="29.41" transform="translate(1542.31 63.62) scale(2.94 2.94)" xlink:href="#LSpades"/></g><g id="KC-2" data-name="KC"><text class="cls-8" transform="translate(1672.42 31.15)">K</text><use width="14.89" height="14.14" transform="translate(1673.72 33.15)" xlink:href="#sSpades"/><use width="14.89" height="14.14" transform="translate(1791.86 164.22) scale(0.98 0.99)" xlink:href="#sUpSpades"/><text class="cls-8" transform="translate(1808.42 180.3) rotate(180)">K</text><use width="30.95" height="29.41" transform="translate(1694.31 63.62) scale(2.94 2.94)" xlink:href="#LSpades"/></g><g id="AC-2" data-name="AC"><text class="cls-8" transform="translate(1824.63 30.13)">A</text><use width="14.89" height="14.14" transform="translate(1825.93 32.13)" xlink:href="#sSpades"/><use width="14.89" height="14.14" transform="translate(1944.07 163.21) scale(0.98 0.99)" xlink:href="#sUpSpades"/><text class="cls-8" transform="translate(1960.63 179.28) rotate(180)">A</text><use width="14.89" height="14.14" transform="translate(1885.38 97.99) scale(1.01 1.02)" xlink:href="#sSpades"/></g></g><g id="Hearts"><g id="_2C-3" data-name="2C"><use width="30.95" height="30.95" transform="translate(52.66 779) scale(1.01 0.99)" xlink:href="#UpHeart"/><use width="30.95" height="30.95" transform="translate(52.66 690.98) scale(1.01 1.02)" xlink:href="#LHearts"/><text class="cls-10" transform="translate(0 675.69)">2</text><use width="14.89" height="14.89" transform="translate(1.3 677.32)" xlink:href="#sHearts"/><use width="14.89" height="14.89" transform="translate(119.44 808.4) scale(0.98 0.99)" xlink:href="#sUpHearts"/><text class="cls-10" transform="translate(136 824.84) rotate(180)">2</text></g><g id="_3C-3" data-name="3C"><text class="cls-10" transform="translate(152 675.69)">3</text><use width="14.89" height="14.89" transform="translate(153.3 677.32)" xlink:href="#sHearts"/><use width="14.89" height="14.89" transform="translate(271.44 808.4) scale(0.98 0.99)" xlink:href="#sUpHearts"/><text class="cls-10" transform="translate(288 824.84) rotate(180)">3</text><use width="30.95" height="30.95" transform="translate(204.66 779) scale(1.01 0.99)" xlink:href="#UpHeart"/><use width="30.95" height="30.95" transform="translate(204.66 690.98) scale(1.01 1.02)" xlink:href="#LHearts"/><use width="30.95" height="30.95" transform="translate(204.66 732.98) scale(1.01 1.02)" xlink:href="#LHearts"/></g><g id="_4C-3" data-name="4C"><text class="cls-10" transform="translate(304 675.69)">4</text><use width="14.89" height="14.89" transform="translate(305.3 677.32)" xlink:href="#sHearts"/><use width="30.95" height="30.95" transform="translate(327.66 779) scale(1.01 0.99)" xlink:href="#UpHeart"/><use width="30.95" height="30.95" transform="translate(327.66 690.98) scale(1.01 1.02)" xlink:href="#LHearts"/><use width="30.95" height="30.95" transform="translate(385.66 779) scale(1.01 0.99)" xlink:href="#UpHeart"/><use width="30.95" height="30.95" transform="translate(385.66 690.98) scale(1.01 1.02)" xlink:href="#LHearts"/><use width="14.89" height="14.89" transform="translate(424.44 808.4) scale(0.98 0.99)" xlink:href="#sUpHearts"/><text class="cls-10" transform="translate(439 824.84) rotate(180)">4</text></g><g id="_8C-3" data-name="8C"><text class="cls-10" transform="translate(912 676.69)">8</text><use width="14.89" height="14.89" transform="translate(913.3 678.32)" xlink:href="#sHearts"/><use width="14.89" height="14.89" transform="translate(1031.44 809.4) scale(0.98 0.99)" xlink:href="#sUpHearts"/><text class="cls-10" transform="translate(1048 825.84) rotate(180)">8</text><use width="30.95" height="30.95" transform="translate(934.66 779) scale(1.01 0.99)" xlink:href="#UpHeart"/><use width="30.95" height="30.95" transform="translate(934.66 690.98) scale(1.01 1.02)" xlink:href="#LHearts"/><use width="30.95" height="30.95" transform="translate(934.66 732.98) scale(1.01 1.02)" xlink:href="#LHearts"/><use width="30.95" height="30.95" transform="translate(994.66 779) scale(1.01 0.99)" xlink:href="#UpHeart"/><use width="30.95" height="30.95" transform="translate(994.66 690.98) scale(1.01 1.02)" xlink:href="#LHearts"/><use width="30.95" height="30.95" transform="translate(994.66 732.98) scale(1.01 1.02)" xlink:href="#LHearts"/><use width="14.89" height="14.89" transform="translate(972.87 770.63) scale(1.01 0.99)" xlink:href="#sUpHearts"/><use width="14.89" height="14.89" transform="translate(972.87 725.88) scale(1.01 1.02)" xlink:href="#sHearts"/></g><g id="_6C-3" data-name="6C"><text class="cls-10" transform="translate(608 676.69)">6</text><use width="14.89" height="14.89" transform="translate(609.3 678.32)" xlink:href="#sHearts"/><use width="14.89" height="14.89" transform="translate(727.44 809.4) scale(0.98 0.99)" xlink:href="#sUpHearts"/><text class="cls-10" transform="translate(744 825.84) rotate(180)">6</text><use width="30.95" height="30.95" transform="translate(630.66 779) scale(1.01 0.99)" xlink:href="#UpHeart"/><use width="30.95" height="30.95" transform="translate(630.66 690.98) scale(1.01 1.02)" xlink:href="#LHearts"/><use width="30.95" height="30.95" transform="translate(630.66 732.98) scale(1.01 1.02)" xlink:href="#LHearts"/><use width="30.95" height="30.95" transform="translate(690.66 779) scale(1.01 0.99)" xlink:href="#UpHeart"/><use width="30.95" height="30.95" transform="translate(690.66 690.98) scale(1.01 1.02)" xlink:href="#LHearts"/><use width="30.95" height="30.95" transform="translate(690.66 732.98) scale(1.01 1.02)" xlink:href="#LHearts"/></g><g id="_9C-3" data-name="9C"><text class="cls-10" transform="translate(1064 676.69)">9</text><use width="14.89" height="14.89" transform="translate(1065.3 678.32)" xlink:href="#sHearts"/><use width="14.89" height="14.89" transform="translate(1183.44 809.4) scale(0.98 0.99)" xlink:href="#sUpHearts"/><text class="cls-10" transform="translate(1200 825.84) rotate(180)">9</text><use width="30.95" height="30.95" transform="translate(1086.66 779) scale(1.01 0.99)" xlink:href="#UpHeart"/><use width="30.95" height="30.95" transform="translate(1086.66 690.98) scale(1.01 1.02)" xlink:href="#LHearts"/><use width="30.95" height="30.95" transform="translate(1086.66 752) scale(1.01 0.99)" xlink:href="#UpHeart"/><use width="30.95" height="30.95" transform="translate(1086.66 719.98) scale(1.01 1.02)" xlink:href="#LHearts"/><use width="30.95" height="30.95" transform="translate(1146.66 779) scale(1.01 0.99)" xlink:href="#UpHeart"/><use width="30.95" height="30.95" transform="translate(1146.66 690.98) scale(1.01 1.02)" xlink:href="#LHearts"/><use width="30.95" height="30.95" transform="translate(1146.66 719.98) scale(1.01 1.02)" xlink:href="#LHearts"/><use width="30.95" height="30.95" transform="translate(1146.66 752) scale(1.01 0.99)" xlink:href="#UpHeart"/><use width="14.89" height="14.89" transform="translate(1124.75 744.17) scale(1.01 1.02)" xlink:href="#sHearts"/></g><g id="_10C-3" data-name="10C"><text class="cls-10" transform="translate(1216.09 676.13)">10</text><use width="14.89" height="14.89" transform="translate(1217.39 677.76)" xlink:href="#sHearts"/><use width="14.89" height="14.89" transform="translate(1335.54 808.83) scale(0.98 0.99)" xlink:href="#sUpHearts"/><text class="cls-10" transform="translate(1352.09 825.28) rotate(180)">10</text><use width="30.95" height="30.95" transform="translate(1238.76 778.44) scale(1.01 0.99)" xlink:href="#UpHeart"/><use width="30.95" height="30.95" transform="translate(1238.76 690.41) scale(1.01 1.02)" xlink:href="#LHearts"/><use width="30.95" height="30.95" transform="translate(1238.76 751.44) scale(1.01 0.99)" xlink:href="#UpHeart"/><use width="30.95" height="30.95" transform="translate(1238.76 719.41) scale(1.01 1.02)" xlink:href="#LHearts"/><use width="30.95" height="30.95" transform="translate(1298.76 778.44) scale(1.01 0.99)" xlink:href="#UpHeart"/><use width="30.95" height="30.95" transform="translate(1298.76 690.41) scale(1.01 1.02)" xlink:href="#LHearts"/><use width="30.95" height="30.95" transform="translate(1298.76 719.41) scale(1.01 1.02)" xlink:href="#LHearts"/><use width="30.95" height="30.95" transform="translate(1298.76 751.44) scale(1.01 0.99)" xlink:href="#UpHeart"/><use width="14.89" height="14.89" transform="translate(1276.85 770.36) scale(1.01 0.99)" xlink:href="#sUpHearts"/><use width="14.89" height="14.89" transform="translate(1276.85 725.61) scale(1.01 1.02)" xlink:href="#sHearts"/></g><g id="_7C-3" data-name="7C"><text class="cls-10" transform="translate(760.08 676.61)">7</text><use width="14.89" height="14.89" transform="translate(761.38 678.24)" xlink:href="#sHearts"/><use width="14.89" height="14.89" transform="translate(879.52 809.31) scale(0.98 0.99)" xlink:href="#sUpHearts"/><text class="cls-10" transform="translate(896.08 825.75) rotate(180)">7</text><use width="30.95" height="30.95" transform="translate(782.75 778.92) scale(1.01 0.99)" xlink:href="#UpHeart"/><use width="30.95" height="30.95" transform="translate(782.75 690.89) scale(1.01 1.02)" xlink:href="#LHearts"/><use width="30.95" height="30.95" transform="translate(782.75 732.89) scale(1.01 1.02)" xlink:href="#LHearts"/><use width="30.95" height="30.95" transform="translate(842.75 778.92) scale(1.01 0.99)" xlink:href="#UpHeart"/><use width="30.95" height="30.95" transform="translate(842.75 690.89) scale(1.01 1.02)" xlink:href="#LHearts"/><use width="30.95" height="30.95" transform="translate(842.75 732.89) scale(1.01 1.02)" xlink:href="#LHearts"/><use width="14.89" height="14.89" transform="translate(820.95 725.79) scale(1.01 1.02)" xlink:href="#sHearts"/></g><g id="_5C-3" data-name="5C"><text class="cls-10" transform="translate(456 675.69)">5</text><use width="14.89" height="14.89" transform="translate(457.3 677.32)" xlink:href="#sHearts"/><use width="30.95" height="30.95" transform="translate(479.66 779) scale(1.01 0.99)" xlink:href="#UpHeart"/><use width="30.95" height="30.95" transform="translate(479.66 690.98) scale(1.01 1.02)" xlink:href="#LHearts"/><use width="14.89" height="14.89" transform="translate(515.69 741.42) scale(1.01 1.02)" xlink:href="#sHearts"/><use width="30.95" height="30.95" transform="translate(537.66 779) scale(1.01 0.99)" xlink:href="#UpHeart"/><use width="30.95" height="30.95" transform="translate(537.66 690.98) scale(1.01 1.02)" xlink:href="#LHearts"/><use width="14.89" height="14.89" transform="translate(576.44 808.4) scale(0.98 0.99)" xlink:href="#sUpHearts"/><text class="cls-10" transform="translate(591 824.84) rotate(180)">5</text></g><g id="JC-3" data-name="JC"><text class="cls-10" transform="translate(1368.38 675.7)">J</text><use width="14.89" height="14.89" transform="translate(1369.68 677.33)" xlink:href="#sHearts"/><use width="14.89" height="14.89" transform="translate(1487.82 808.4) scale(0.98 0.99)" xlink:href="#sUpHearts"/><use width="30.95" height="30.95" transform="translate(1390.31 706.34) scale(2.94 2.94)" xlink:href="#LHearts"/><text class="cls-10" transform="translate(1504.38 824.84) rotate(180)">J</text></g><g id="QC-3" data-name="QC"><text class="cls-10" transform="translate(1520.38 675.7)">Q</text><use width="14.89" height="14.89" transform="translate(1521.68 677.33)" xlink:href="#sHearts"/><use width="14.89" height="14.89" transform="translate(1639.82 808.4) scale(0.98 0.99)" xlink:href="#sUpHearts"/><use width="30.95" height="30.95" transform="translate(1542.31 706.34) scale(2.94 2.94)" xlink:href="#LHearts"/><text class="cls-10" transform="translate(1656.38 824.84) rotate(180)">Q</text></g><g id="KC-3" data-name="KC"><text class="cls-10" transform="translate(1672 676.69)">K</text><use width="14.89" height="14.89" transform="translate(1673.3 678.32)" xlink:href="#sHearts"/><use width="14.89" height="14.89" transform="translate(1791.44 809.4) scale(0.98 0.99)" xlink:href="#sUpHearts"/><text class="cls-10" transform="translate(1808 825.84) rotate(180)">K</text><use width="30.95" height="30.95" transform="translate(1694.31 706.34) scale(2.94 2.94)" xlink:href="#LHearts"/></g><g id="AC-3" data-name="AC"><text class="cls-10" transform="translate(1824.21 675.67)">A</text><use width="14.89" height="14.89" transform="translate(1825.51 677.3)" xlink:href="#sHearts"/><use width="14.89" height="14.89" transform="translate(1943.65 808.38) scale(0.98 0.99)" xlink:href="#sUpHearts"/><text class="cls-10" transform="translate(1960.21 824.82) rotate(180)">A</text><use width="14.89" height="14.89" transform="translate(1884.96 743.15) scale(1.01 1.02)" xlink:href="#sHearts"/></g></g><g id="Diamonds"><g id="_2C-4" data-name="2C"><use width="30.95" height="30.95" transform="translate(53.02 563.88) scale(1.01 0.99)" xlink:href="#Diamond"/><use width="30.95" height="30.95" transform="translate(53.02 475.86) scale(1.01 1.02)" xlink:href="#Diamond"/><text class="cls-10" transform="translate(0.36 460.57)">2</text><use width="14.89" height="14.89" transform="translate(1.66 462.2)" xlink:href="#sDiamond"/><use width="14.89" height="14.89" transform="translate(119.8 593.28) scale(0.98 0.99)" xlink:href="#sDiamond"/><text class="cls-10" transform="translate(136.36 609.72) rotate(180)">2</text></g><g id="_3C-4" data-name="3C"><text class="cls-10" transform="translate(152.36 460.57)">3</text><use width="14.89" height="14.89" transform="translate(153.66 462.2)" xlink:href="#sDiamond"/><use width="14.89" height="14.89" transform="translate(271.8 593.28) scale(0.98 0.99)" xlink:href="#sDiamond"/><text class="cls-10" transform="translate(288.36 609.72) rotate(180)">3</text><use width="30.95" height="30.95" transform="translate(205.02 563.88) scale(1.01 0.99)" xlink:href="#Diamond"/><use width="30.95" height="30.95" transform="translate(205.02 475.86) scale(1.01 1.02)" xlink:href="#Diamond"/><use width="30.95" height="30.95" transform="translate(205.02 517.86) scale(1.01 1.02)" xlink:href="#Diamond"/></g><g id="_4C-4" data-name="4C"><text class="cls-10" transform="translate(304.36 460.57)">4</text><use width="14.89" height="14.89" transform="translate(305.66 462.2)" xlink:href="#sDiamond"/><use width="30.95" height="30.95" transform="translate(328.02 563.88) scale(1.01 0.99)" xlink:href="#Diamond"/><use width="30.95" height="30.95" transform="translate(328.02 475.86) scale(1.01 1.02)" xlink:href="#Diamond"/><use width="30.95" height="30.95" transform="translate(386.02 563.88) scale(1.01 0.99)" xlink:href="#Diamond"/><use width="30.95" height="30.95" transform="translate(386.02 475.86) scale(1.01 1.02)" xlink:href="#Diamond"/><use width="14.89" height="14.89" transform="translate(424.8 593.28) scale(0.98 0.99)" xlink:href="#sDiamond"/><text class="cls-10" transform="translate(439.36 609.72) rotate(180)">4</text></g><g id="_8C-4" data-name="8C"><text class="cls-10" transform="translate(912.36 461.57)">8</text><use width="14.89" height="14.89" transform="translate(913.66 463.2)" xlink:href="#sDiamond"/><use width="14.89" height="14.89" transform="translate(1031.8 594.28) scale(0.98 0.99)" xlink:href="#sDiamond"/><text class="cls-10" transform="translate(1048.36 610.72) rotate(180)">8</text><use width="30.95" height="30.95" transform="translate(935.02 563.88) scale(1.01 0.99)" xlink:href="#Diamond"/><use width="30.95" height="30.95" transform="translate(935.02 475.86) scale(1.01 1.02)" xlink:href="#Diamond"/><use width="30.95" height="30.95" transform="translate(935.02 517.86) scale(1.01 1.02)" xlink:href="#Diamond"/><use width="30.95" height="30.95" transform="translate(995.02 563.88) scale(1.01 0.99)" xlink:href="#Diamond"/><use width="30.95" height="30.95" transform="translate(995.02 475.86) scale(1.01 1.02)" xlink:href="#Diamond"/><use width="30.95" height="30.95" transform="translate(995.02 517.86) scale(1.01 1.02)" xlink:href="#Diamond"/><use width="14.89" height="14.89" transform="translate(973.23 555.51) scale(1.01 0.99)" xlink:href="#sDiamond"/><use width="14.89" height="14.89" transform="translate(973.23 510.76) scale(1.01 1.02)" xlink:href="#sDiamond"/></g><g id="_6C-4" data-name="6C"><text class="cls-10" transform="translate(608.36 461.57)">6</text><use width="14.89" height="14.89" transform="translate(609.66 463.2)" xlink:href="#sDiamond"/><use width="14.89" height="14.89" transform="translate(727.8 594.28) scale(0.98 0.99)" xlink:href="#sDiamond"/><text class="cls-10" transform="translate(744.36 610.72) rotate(180)">6</text><use width="30.95" height="30.95" transform="translate(631.02 563.88) scale(1.01 0.99)" xlink:href="#Diamond"/><use width="30.95" height="30.95" transform="translate(631.02 475.86) scale(1.01 1.02)" xlink:href="#Diamond"/><use width="30.95" height="30.95" transform="translate(631.02 517.86) scale(1.01 1.02)" xlink:href="#Diamond"/><use width="30.95" height="30.95" transform="translate(691.02 563.88) scale(1.01 0.99)" xlink:href="#Diamond"/><use width="30.95" height="30.95" transform="translate(691.02 475.86) scale(1.01 1.02)" xlink:href="#Diamond"/><use width="30.95" height="30.95" transform="translate(691.02 517.86) scale(1.01 1.02)" xlink:href="#Diamond"/></g><g id="_9C-4" data-name="9C"><text class="cls-10" transform="translate(1064.36 461.57)">9</text><use width="14.89" height="14.89" transform="translate(1065.66 463.2)" xlink:href="#sDiamond"/><use width="14.89" height="14.89" transform="translate(1183.8 594.28) scale(0.98 0.99)" xlink:href="#sDiamond"/><text class="cls-10" transform="translate(1200.36 610.72) rotate(180)">9</text><use width="30.95" height="30.95" transform="translate(1087.02 563.88) scale(1.01 0.99)" xlink:href="#Diamond"/><use width="30.95" height="30.95" transform="translate(1087.02 475.86) scale(1.01 1.02)" xlink:href="#Diamond"/><use width="30.95" height="30.95" transform="translate(1087.02 536.88) scale(1.01 0.99)" xlink:href="#Diamond"/><use width="30.95" height="30.95" transform="translate(1087.02 504.86) scale(1.01 1.02)" xlink:href="#Diamond"/><use width="30.95" height="30.95" transform="translate(1147.02 563.88) scale(1.01 0.99)" xlink:href="#Diamond"/><use width="30.95" height="30.95" transform="translate(1147.02 475.86) scale(1.01 1.02)" xlink:href="#Diamond"/><use width="30.95" height="30.95" transform="translate(1147.02 504.86) scale(1.01 1.02)" xlink:href="#Diamond"/><use width="30.95" height="30.95" transform="translate(1147.02 536.88) scale(1.01 0.99)" xlink:href="#Diamond"/><use width="14.89" height="14.89" transform="translate(1125.11 529.05) scale(1.01 1.02)" xlink:href="#sDiamond"/></g><g id="_10C-4" data-name="10C"><text class="cls-10" transform="translate(1216.45 461.01)">10</text><use width="14.89" height="14.89" transform="translate(1217.75 462.64)" xlink:href="#sDiamond"/><use width="14.89" height="14.89" transform="translate(1335.89 593.71) scale(0.98 0.99)" xlink:href="#sDiamond"/><text class="cls-10" transform="translate(1352.45 610.16) rotate(180)">10</text><use width="30.95" height="30.95" transform="translate(1239.12 563.32) scale(1.01 0.99)" xlink:href="#Diamond"/><use width="30.95" height="30.95" transform="translate(1239.12 475.29) scale(1.01 1.02)" xlink:href="#Diamond"/><use width="30.95" height="30.95" transform="translate(1239.12 536.32) scale(1.01 0.99)" xlink:href="#Diamond"/><use width="30.95" height="30.95" transform="translate(1239.12 504.29) scale(1.01 1.02)" xlink:href="#Diamond"/><use width="30.95" height="30.95" transform="translate(1299.12 563.32) scale(1.01 0.99)" xlink:href="#Diamond"/><use width="30.95" height="30.95" transform="translate(1299.12 475.29) scale(1.01 1.02)" xlink:href="#Diamond"/><use width="30.95" height="30.95" transform="translate(1299.12 504.29) scale(1.01 1.02)" xlink:href="#Diamond"/><use width="30.95" height="30.95" transform="translate(1299.12 536.32) scale(1.01 0.99)" xlink:href="#Diamond"/><use width="14.89" height="14.89" transform="translate(1277.2 555.24) scale(1.01 0.99)" xlink:href="#sDiamond"/><use width="14.89" height="14.89" transform="translate(1277.2 510.49) scale(1.01 1.02)" xlink:href="#sDiamond"/></g><g id="_7C-4" data-name="7C"><text class="cls-10" transform="translate(760.44 461.49)">7</text><use width="14.89" height="14.89" transform="translate(761.74 463.12)" xlink:href="#sDiamond"/><use width="14.89" height="14.89" transform="translate(879.88 594.19) scale(0.98 0.99)" xlink:href="#sDiamond"/><text class="cls-10" transform="translate(896.44 610.64) rotate(180)">7</text><use width="30.95" height="30.95" transform="translate(783.1 563.8) scale(1.01 0.99)" xlink:href="#Diamond"/><use width="30.95" height="30.95" transform="translate(783.1 475.77) scale(1.01 1.02)" xlink:href="#Diamond"/><use width="30.95" height="30.95" transform="translate(783.1 517.77) scale(1.01 1.02)" xlink:href="#Diamond"/><use width="30.95" height="30.95" transform="translate(843.1 563.8) scale(1.01 0.99)" xlink:href="#Diamond"/><use width="30.95" height="30.95" transform="translate(843.1 475.77) scale(1.01 1.02)" xlink:href="#Diamond"/><use width="30.95" height="30.95" transform="translate(843.1 517.77) scale(1.01 1.02)" xlink:href="#Diamond"/><use width="14.89" height="14.89" transform="translate(821.31 510.67) scale(1.01 1.02)" xlink:href="#sDiamond"/></g><g id="_5C-4" data-name="5C"><text class="cls-10" transform="translate(456.36 460.57)">5</text><use width="14.89" height="14.89" transform="translate(457.66 462.2)" xlink:href="#sDiamond"/><use width="30.95" height="30.95" transform="translate(480.02 563.88) scale(1.01 0.99)" xlink:href="#Diamond"/><use width="30.95" height="30.95" transform="translate(480.02 475.86) scale(1.01 1.02)" xlink:href="#Diamond"/><use width="14.89" height="14.89" transform="translate(516.05 526.3) scale(1.01 1.02)" xlink:href="#sDiamond"/><use width="30.95" height="30.95" transform="translate(538.02 563.88) scale(1.01 0.99)" xlink:href="#Diamond"/><use width="30.95" height="30.95" transform="translate(538.02 475.86) scale(1.01 1.02)" xlink:href="#Diamond"/><use width="14.89" height="14.89" transform="translate(576.8 593.28) scale(0.98 0.99)" xlink:href="#sDiamond"/><text class="cls-10" transform="translate(591.36 609.72) rotate(180)">5</text></g><g id="JC-4" data-name="JC"><text class="cls-10" transform="translate(1368.74 460.58)">J</text><use width="14.89" height="14.89" transform="translate(1370.04 462.21)" xlink:href="#sDiamond"/><use width="14.89" height="14.89" transform="translate(1488.18 593.28) scale(0.98 0.99)" xlink:href="#sDiamond"/><text class="cls-10" transform="translate(1504.74 609.72) rotate(180)">J</text><use width="30.95" height="30.95" transform="translate(1392.31 490.34) scale(2.94 2.94)" xlink:href="#Diamond"/></g><g id="QC-4" data-name="QC"><text class="cls-10" transform="translate(1520.74 460.58)">Q</text><use width="14.89" height="14.89" transform="translate(1522.04 462.21)" xlink:href="#sDiamond"/><use width="14.89" height="14.89" transform="translate(1640.18 593.28) scale(0.98 0.99)" xlink:href="#sDiamond"/><text class="cls-10" transform="translate(1656.74 609.72) rotate(180)">Q</text><use width="30.95" height="30.95" transform="translate(1544.31 490.34) scale(2.94 2.94)" xlink:href="#Diamond"/></g><g id="KC-4" data-name="KC"><text class="cls-10" transform="translate(1672.36 461.57)">K</text><use width="14.89" height="14.89" transform="translate(1673.66 463.2)" xlink:href="#sDiamond"/><use width="14.89" height="14.89" transform="translate(1791.8 594.28) scale(0.98 0.99)" xlink:href="#sDiamond"/><text class="cls-10" transform="translate(1808.35 610.72) rotate(180)">K</text><use width="30.95" height="30.95" transform="translate(1696.31 490.34) scale(2.94 2.94)" xlink:href="#Diamond"/></g><g id="AC-4" data-name="AC"><text class="cls-10" transform="translate(1824.57 460.55)">A</text><use width="14.89" height="14.89" transform="translate(1825.87 462.18)" xlink:href="#sDiamond"/><use width="14.89" height="14.89" transform="translate(1944.01 593.26) scale(0.98 0.99)" xlink:href="#sDiamond"/><text class="cls-10" transform="translate(1960.57 609.7) rotate(180)">A</text><use width="14.89" height="14.89" transform="translate(1885.32 528.03) scale(1.01 1.02)" xlink:href="#sDiamond"/></g></g></g></g></svg>